<svg xmlns="http://www.w3.org/2000/svg" width="22" height="12.575" viewBox="0 0 25.513 14.583"><path d="M25.513.833q-1.02 0-1.947 2.376l-.255.658q-.497 1.262-.94 1.773-.51.59-1.679 1.047 3.988.483 3.988 3.827 0 1.84-1.49 2.994-1.37 1.075-3.263 1.075-2.94 0-4.754-2.565l.725-.564q1.182 1.49 2.86 1.49 1.29 0 2.243-.819 1.007-.86 1.007-2.135 0-1.02-.765-1.665-.725-.604-1.76-.604-1.678 0-3.76 1.772l-.55.47q-1.826 1.558-3.96 2.444-2.23.94-4.123.94-2.927 0-4.955-1.732Q0 9.802 0 6.929q0-3.102 2.377-5.076Q4.619 0 7.775 0h.255v.833q-2.457.174-3.88 1.53Q2.644 3.8 2.644 6.217q0 2.538 1.638 4.216 1.639 1.679 4.163 1.679 2.242 0 4.257-1.41 2.242-1.544 2.242-3.693 0-.967-.631-1.745-.671-.806-1.625-.806-.873 0-1.423.658-.55.644-.55 1.53 0 .296.093.699l-.805.255q-.269-.873-.269-1.665 0-1.53.82-2.578.885-1.141 2.362-1.141 1.854 0 2.981 1.933Q17.47 0 23.525 0h1.988v.833zm-2.981.013q-6.258.322-6.164 6.123l.014.779q1.8-.994 2.618-1.706 1.115-.993 1.786-2.524l.188-.43q.685-1.557 1.558-2.242z"/></svg>
